<svg width="1102" height="1103" xmlns="http://www.w3.org/2000/svg" xmlns:xlink="http://www.w3.org/1999/xlink" xml:space="preserve" overflow="hidden"><defs><clipPath id="clip0"><rect x="22" y="1349" width="1102" height="1103"/></clipPath></defs><g clip-path="url(#clip0)" transform="translate(-22 -1349)"><path d="M522.467 1351.36C626.586 1341.59 733.368 1362.28 826.179 1410.59 943.467 1471.02 1037.59 1575.06 1085.66 1698.07 1129.86 1809.39 1135.96 1935.27 1103.35 2050.48 1074.64 2153.01 1015.24 2246.59 934.907 2316.33 860.332 2381.72 767.692 2426.19 670.072 2443.41 552.326 2464.62 427.766 2446.31 321.471 2391.23 203.983 2331.23 109.569 2227.48 61.0446 2104.67 22.4829 2008.28 12.2341 1900.83 31.4148 1798.79 50.0513 1697.38 98.3465 1601.82 168.37 1526.24 259.521 1426.92 388.145 1363.02 522.467 1351.36M719.912 1671.94C669.842 1679.19 621.318 1704.35 591.059 1745.64 555.933 1792.6 544.711 1853 544.939 1910.57 545.311 1964.38 552.383 2020.94 582.299 2067.05 606.117 2104.21 646.596 2128.16 689.281 2137.08 734.312 2146.42 781.662 2146.9 826.493 2136.24 870.981 2125.47 912.062 2099.08 937.626 2060.74 969.06 2014.38 979.108 1957.04 979.194 1901.91 979.223 1858.85 974.413 1814.84 957.236 1774.95 941.463 1737.21 911.89 1705.01 874.159 1688.67 825.978 1667.61 771.471 1665.03 719.912 1671.94M186.577 1687.36C180.737 1694.49 179.993 1704.09 179.964 1712.94 180.136 1849.59 179.821 1986.24 180.107 2122.89 179.649 2132.15 190.127 2134.81 197.341 2136.02 217.008 2138.85 237.22 2138.94 256.858 2135.81 263.843 2134.53 273.548 2131.55 273.147 2122.72 273.434 2074.04 273.176 2025.33 273.319 1976.64 313.799 1976.64 355.481 1978.22 394.3 1964.61 430.772 1952.8 463.379 1926.9 479.124 1891.43 494.927 1856.18 497.933 1815.55 489.917 1777.93 481.873 1741.28 455.278 1710.08 421.067 1695.12 388.059 1679.53 350.757 1676.75 314.772 1676.67 280.476 1676.7 246.18 1676.61 211.855 1676.7 202.466 1676.55 192.56 1679.73 186.577 1687.36Z" fill="#8247E5" fill-rule="evenodd"/><path d="M745.996 1745.92C775.932 1743.11 808.593 1746.06 833.54 1764.44 856.939 1781.15 869.814 1808.71 875.521 1836.2 882.546 1871.84 883.693 1908.62 879.765 1944.72 876.668 1974.04 868.782 2003.92 850.315 2027.51 833.397 2049.36 807.245 2063.49 779.746 2066.02 749.322 2068.88 716.059 2066.25 690.595 2047.7 666.537 2030.52 654.58 2001.51 648.959 1973.41 642.393 1938.41 641.475 1902.43 645.117 1867.05 648.243 1838.15 655.87 1808.68 674.05 1785.43 691.227 1763.01 717.865 1748.38 745.996 1745.92Z" fill="#8247E5" fill-rule="evenodd"/><path d="M273 1901.86C281.728 1897.67 273.533 1910.69 273 1901.86Z" fill="#8247E5" fill-rule="evenodd"/><path d="M719.872 1671.42C771.4 1664.51 825.875 1667.09 874.027 1688.17 911.736 1704.52 941.291 1736.75 957.056 1774.51 974.222 1814.43 979.029 1858.47 979 1901.57 978.914 1956.74 968.872 2014.12 937.457 2060.52 911.908 2098.89 870.851 2125.3 826.39 2136.08 781.586 2146.75 734.264 2146.26 689.259 2136.91 646.6 2127.99 606.145 2104.02 582.341 2066.83 552.442 2020.69 545.375 1964.08 545.003 1910.23 544.774 1852.62 555.99 1792.18 591.095 1745.18 621.337 1703.86 669.832 1678.68 719.872 1671.42M745.536 1745.66C717.469 1748.13 690.89 1762.75 673.752 1785.18 655.613 1808.43 648.002 1837.91 644.883 1866.82 641.25 1902.2 642.166 1938.19 648.717 1973.2 654.325 2001.3 666.256 2030.32 690.26 2047.5 715.667 2066.05 748.855 2068.69 779.211 2065.82 806.649 2063.3 832.742 2049.16 849.622 2027.31 868.048 2003.71 875.915 1973.83 879.006 1944.5 882.925 1908.4 881.781 1871.61 874.771 1835.96 869.078 1808.46 856.231 1780.91 832.885 1764.19 807.994 1745.81 775.406 1742.85 745.536 1745.66Z" fill="#FFFFFF" fill-rule="evenodd"/><path d="M186.629 1687.69C192.627 1680.07 202.556 1676.9 211.968 1677.04 246.376 1676.95 280.754 1677.04 315.133 1677.01 351.205 1677.1 388.597 1679.87 421.684 1695.44 455.976 1710.39 482.635 1741.56 490.699 1778.17 498.735 1815.75 495.721 1856.33 479.881 1891.54 464.097 1926.98 431.412 1952.85 394.852 1964.64 355.939 1978.24 314.157 1976.67 273.58 1976.67 273.437 2025.3 273.695 2073.96 273.408 2122.59 273.81 2131.4 264.081 2134.38 257.08 2135.67 237.394 2138.79 217.134 2138.7 197.419 2135.87 190.188 2134.67 179.684 2132 180.144 2122.76 179.857 1986.25 180.172 1849.75 180 1713.25 180.029 1704.4 180.775 1694.81 186.629 1687.69M212.973 1737.12C212.772 1791.19 213.059 1845.29 212.829 1899.38 213.145 1903.93 212.313 1909.12 214.981 1913.18 218.884 1918.45 226.259 1916.79 231.941 1917.36 257.74 1916.9 283.567 1917.93 309.336 1916.9 315.564 1909.49 315.678 1894.63 309.537 1887.08 289.794 1886.16 269.993 1887.1 250.25 1886.7 249.876 1836.5 250.824 1786.27 249.762 1736.06 237.709 1733.43 224.595 1732.02 212.973 1737.12M334.934 1746.99C328.678 1755.07 331.375 1766.66 333.614 1775.82 350.114 1768.55 367.275 1756.35 386.186 1762.51 403.777 1767.43 405.269 1793.28 391.61 1803.32 378.696 1812.86 361.679 1809.88 346.671 1810.62 343.457 1819.15 344.059 1828.34 346.097 1837.07 362.655 1838.56 380.934 1835.21 395.742 1844.54 410.435 1853.53 410.377 1878.77 394.422 1886.42 373.072 1896.92 349.397 1886.88 329.338 1878.17 326.726 1889.28 323.512 1906.74 337 1911.95 356.829 1920.94 379.672 1922.37 400.936 1918.36 418.24 1915.07 435.143 1905.45 443.608 1889.59 452.303 1872.88 452.274 1850.15 438.729 1835.95 431.039 1827.34 419.732 1823.5 408.77 1821.13 418.728 1817.75 428.743 1812.68 434.31 1803.35 443.407 1787.87 444.067 1766.8 434.195 1751.49 424.726 1737.06 406.388 1731.94 389.974 1731.45 370.805 1731.14 350.286 1734.92 334.934 1746.99Z" fill="#FFFFFF" fill-rule="evenodd"/><path d="M213.143 1736.43C224.737 1731.33 237.82 1732.74 249.843 1735.37 250.902 1785.66 249.957 1835.98 250.33 1886.27 270.025 1886.67 289.777 1885.73 309.473 1886.65 315.599 1894.22 315.485 1909.1 309.273 1916.52 283.565 1917.55 257.801 1916.52 232.066 1916.98 226.397 1916.41 219.04 1918.07 215.147 1912.79 212.485 1908.72 213.315 1903.53 213 1898.97 213.229 1844.79 212.943 1790.6 213.143 1736.43M273.231 1901.7C273.746 1911.25 281.676 1897.17 273.231 1901.7Z" fill="#C0A3F2" fill-rule="evenodd"/><path d="M334.885 1746.56C350.162 1734.48 370.58 1730.7 389.655 1731.02 405.989 1731.5 424.237 1736.63 433.66 1751.05 443.483 1766.36 442.827 1787.42 433.774 1802.9 428.234 1812.23 418.269 1817.3 408.359 1820.67 419.268 1823.05 430.519 1826.88 438.172 1835.5 451.651 1849.69 451.679 1872.41 443.027 1889.12 434.602 1904.98 417.783 1914.59 400.564 1917.88 379.403 1921.89 356.673 1920.46 336.941 1911.47 323.519 1906.26 326.718 1888.81 329.316 1877.7 349.277 1886.4 372.836 1896.45 394.082 1885.95 409.958 1878.31 410.016 1853.07 395.395 1844.08 380.66 1834.75 362.47 1838.1 345.993 1836.61 343.965 1827.88 343.366 1818.7 346.564 1810.17 361.499 1809.43 378.432 1812.4 391.283 1802.87 404.876 1792.83 403.391 1766.99 385.886 1762.07 367.067 1755.91 349.991 1768.1 333.571 1775.37 331.344 1766.22 328.659 1754.63 334.885 1746.56Z" fill="#C0A3F2" fill-rule="evenodd"/></g></svg>