<svg width="1102" height="1102" xmlns="http://www.w3.org/2000/svg" xmlns:xlink="http://www.w3.org/1999/xlink" xml:space="preserve" overflow="hidden"><defs><clipPath id="clip0"><rect x="83" y="1269" width="1102" height="1102"/></clipPath></defs><g clip-path="url(#clip0)" transform="translate(-83 -1269)"><path d="M583.467 1271.36C687.586 1261.6 794.367 1282.27 887.178 1330.53 1004.47 1390.91 1098.59 1494.86 1146.66 1617.76 1190.86 1728.97 1196.96 1854.74 1164.35 1969.85 1135.64 2072.28 1076.24 2165.78 995.907 2235.46 921.331 2300.78 828.692 2345.21 731.071 2362.42 613.325 2383.6 488.766 2365.31 382.471 2310.29 264.983 2250.34 170.568 2146.68 122.044 2023.98 83.4827 1927.68 73.2339 1820.33 92.4146 1718.38 111.051 1617.07 159.346 1521.6 229.37 1446.08 320.52 1346.85 449.145 1283.01 583.467 1271.36M780.912 1591.65C730.842 1598.89 682.318 1624.03 652.059 1665.28 616.933 1712.2 605.71 1772.55 605.939 1830.06 606.311 1883.82 613.382 1940.33 643.298 1986.4 667.117 2023.53 707.596 2047.46 750.281 2056.36 795.312 2065.69 842.662 2066.18 887.493 2055.53 931.981 2044.77 973.062 2018.4 998.626 1980.1 1030.06 1933.78 1040.11 1876.49 1040.19 1821.41 1040.22 1778.39 1035.41 1734.41 1018.24 1694.56 1002.46 1656.86 972.89 1624.68 935.159 1608.37 886.978 1587.32 832.471 1584.75 780.912 1591.65M247.577 1607.05C241.737 1614.18 240.993 1623.77 240.964 1632.61 241.136 1769.14 240.821 1905.66 241.107 2042.19 240.649 2051.44 251.127 2054.1 258.341 2055.3 278.008 2058.14 298.219 2058.22 317.858 2055.1 324.843 2053.81 334.548 2050.84 334.147 2042.02 334.434 1993.38 334.176 1944.71 334.319 1896.07 374.799 1896.07 416.481 1897.65 455.3 1884.05 491.772 1872.26 524.379 1846.38 540.124 1810.94 555.926 1775.72 558.932 1735.13 550.917 1697.54 542.872 1660.93 516.277 1629.75 482.067 1614.81 449.059 1599.23 411.757 1596.46 375.772 1596.37 341.476 1596.4 307.18 1596.31 272.855 1596.4 263.465 1596.26 253.56 1599.43 247.577 1607.05Z" fill="#FFFFFF" fill-rule="evenodd"/><path d="M791.687 1590.97C831.399 1586.89 872.198 1588.8 910.652 1600.03 943.517 1609.65 974.112 1628.56 994.979 1656 1022.03 1690.78 1033.87 1734.84 1038.03 1778.06 1041.65 1819.18 1040.68 1861.03 1031.73 1901.44 1023.65 1937.27 1008.35 1972.17 983.61 1999.67 957.899 2028.9 922.096 2048.06 884.444 2056.89 849.367 2065.08 812.821 2065.54 777.133 2061.59 738.298 2057.06 699.12 2044.11 669.632 2017.57 643.882 1994.82 627.268 1963.34 618.189 1930.54 607.603 1892.57 605.123 1852.82 606.249 1813.57 608.099 1763.88 619.41 1712.92 648.078 1671.51 669.403 1640.35 701.009 1616.81 736.334 1603.85 754.149 1597.21 772.823 1593.09 791.687 1590.97M801.434 1667.2C767.978 1671.34 738.298 1693.86 723.363 1723.79 705.605 1758.69 703.45 1798.97 703.908 1837.42 705.262 1873.68 708.905 1911.88 728.494 1943.4 742.705 1966.66 768.207 1981.41 794.891 1985.07 826.364 1989.52 861.231 1987.7 888.03 1968.78 914.906 1950.69 930.222 1919.72 936.288 1888.62 944.356 1846.7 943.994 1803.25 936.669 1761.25 931.424 1732.5 918.854 1703.24 894.63 1685.56 868.212 1665.79 833.116 1663.15 801.434 1667.2Z" fill-rule="evenodd"/><path d="M248.752 1606.4C254.931 1599.54 264.428 1596.83 273.429 1597.02 310.387 1597.04 347.364 1596.93 384.342 1597.08 408.694 1597.12 433.066 1599.92 456.675 1605.94 488.465 1614.93 518.825 1633.57 536.141 1662.41 555.192 1693.39 557.69 1731.53 552.885 1766.8 548.556 1798.6 534.863 1829.8 511.159 1851.9 484.194 1877.56 447.388 1890.23 410.964 1894.47 385.543 1897.58 359.875 1896.47 334.339 1896.68 334.32 1944.99 334.225 1993.3 334.244 2041.59 334.931 2047.29 330.64 2052.14 325.396 2053.71 312.447 2057.98 298.583 2057.9 285.1 2058 272.781 2057.71 260.08 2057.58 248.39 2053.23 243.642 2051.53 240.495 2046.7 241.067 2041.62 241.048 1904.83 241.067 1768.02 241.067 1631.23 240.972 1622.48 242.612 1613.04 248.752 1606.4M397.844 1665.96C390.101 1670.66 391.875 1681.02 392.084 1688.68 392.389 1691.56 392.904 1697.15 397.214 1695.66 406.845 1691.44 415.655 1685.09 426.163 1683.05 436.556 1680.81 449.562 1681.27 456.675 1690.34 465.314 1701.88 460.966 1720.99 447.617 1727.02 435.24 1734.01 420.518 1729.39 407.474 1732.58 403.526 1739.07 404.651 1747.6 405.872 1754.77 407.035 1759.79 412.794 1758.3 416.609 1758.65 430.282 1758.67 445.462 1757.88 457.076 1766.36 468.289 1774.15 470.196 1791.82 461.481 1802.13 454.081 1810.2 442.449 1812.26 431.979 1811.78 417.657 1811.48 404.365 1805.52 391.741 1799.3 386.477 1804.13 387.812 1811.92 387.965 1818.35 388.213 1823.6 389.853 1829.65 395.231 1831.81 415.197 1841.73 438.616 1843.51 460.356 1839.56 477.958 1836.31 495.597 1826.79 503.912 1810.28 511.941 1794.38 512.608 1773.13 500.708 1758.93 492.966 1749.18 480.913 1744.2 468.899 1742.31 480.303 1738.82 491.307 1731.93 496.532 1720.78 503.187 1706.33 503.454 1688.41 495.693 1674.34 488.103 1661.31 473.171 1654.78 458.735 1653.08 437.853 1650.77 415.617 1654.3 397.844 1665.96M274.02 1658.12C273.62 1712.8 274.039 1767.48 273.811 1822.19 273.83 1827.51 273.677 1834.94 279.818 1837.09 288.971 1839.5 298.602 1837.84 307.965 1838.28 328.924 1837.91 349.977 1839.06 370.878 1837.74 376.103 1828.96 375.207 1816.98 371.202 1807.81 351.14 1807.62 331.098 1807.89 311.036 1807.68 310.997 1759.01 311.169 1710.34 310.959 1661.69 311.627 1657.79 307.756 1656.15 304.628 1655.66 294.502 1654.44 283.479 1653.44 274.02 1658.12Z" fill-rule="evenodd"/><path d="M398.131 1665.54C415.888 1653.89 438.104 1650.36 458.967 1652.67 473.39 1654.37 488.309 1660.89 495.892 1673.92 503.647 1687.98 503.38 1705.89 496.73 1720.33 491.51 1731.47 480.516 1738.36 469.123 1741.85 481.126 1743.74 493.167 1748.72 500.903 1758.47 512.792 1772.66 512.125 1793.89 504.104 1809.78 495.797 1826.28 478.173 1835.8 460.587 1839.05 438.866 1843 415.469 1841.22 395.52 1831.3 390.148 1829.15 388.509 1823.1 388.261 1817.85 388.109 1811.42 386.775 1803.64 392.034 1798.81 404.647 1805.03 417.927 1810.98 432.236 1811.29 442.696 1811.77 454.318 1809.71 461.711 1801.64 470.418 1791.34 468.513 1773.67 457.31 1765.89 445.706 1757.42 430.54 1758.2 416.879 1758.18 413.068 1757.84 407.314 1759.33 406.152 1754.31 404.933 1747.14 403.809 1738.61 407.753 1732.12 420.785 1728.94 435.494 1733.55 447.859 1726.57 461.196 1720.54 465.541 1701.45 456.909 1689.91 449.803 1680.84 436.809 1680.39 426.425 1682.62 415.926 1684.66 407.124 1691.01 397.502 1695.23 393.196 1696.72 392.682 1691.13 392.377 1688.25 392.167 1680.6 390.395 1670.24 398.131 1665.54Z" fill="#FFFFFF" fill-rule="evenodd" fill-opacity="0.501961"/><path d="M274.21 1657.48C283.698 1652.8 294.754 1653.79 304.911 1655.02 308.048 1655.51 311.931 1657.16 311.262 1661.06 311.472 1709.76 311.3 1758.49 311.338 1807.21 331.461 1807.42 351.565 1807.16 371.688 1807.35 375.705 1816.52 376.604 1828.52 371.363 1837.31 350.398 1838.63 329.28 1837.48 308.259 1837.84 298.867 1837.41 289.207 1839.07 280.025 1836.66 273.866 1834.5 274.019 1827.07 274 1821.74 274.23 1766.97 273.809 1712.23 274.21 1657.48Z" fill="#FFFFFF" fill-rule="evenodd" fill-opacity="0.501961"/><path d="M806.564 1665.92C836.376 1663.11 868.9 1666.06 893.743 1684.44 917.044 1701.15 929.865 1728.71 935.548 1756.2 942.543 1791.84 943.686 1828.62 939.774 1864.72 936.69 1894.04 928.837 1923.92 910.447 1947.51 893.6 1969.36 867.558 1983.49 840.174 1986.02 809.877 1988.88 776.753 1986.25 751.396 1967.7 727.438 1950.52 715.531 1921.51 709.934 1893.41 703.395 1858.41 702.481 1822.43 706.108 1787.05 709.22 1758.15 716.816 1728.68 734.92 1705.43 752.025 1683.01 778.552 1668.38 806.564 1665.92Z" fill="#FFFFFF" fill-rule="evenodd"/><path d="M334 1821.86C342.728 1817.67 334.533 1830.69 334 1821.86Z" fill="#FFFFFF" fill-rule="evenodd"/></g></svg>