<svg width="3380" height="1103" xmlns="http://www.w3.org/2000/svg" xmlns:xlink="http://www.w3.org/1999/xlink" xml:space="preserve" overflow="hidden"><defs><clipPath id="clip0"><rect x="0" y="0" width="3380" height="1103"/></clipPath></defs><g clip-path="url(#clip0)"><path d="M708.687 321.971C748.399 317.888 789.198 319.796 827.652 331.034 860.517 340.651 891.112 359.561 911.979 386.999 939.026 421.784 950.871 465.842 955.029 509.061 958.653 550.181 957.68 592.026 948.735 632.439 940.647 668.274 925.35 703.173 900.61 730.669 874.899 759.901 839.096 779.059 801.444 787.893 766.367 796.079 729.821 796.537 694.133 792.587 655.298 788.065 616.12 775.109 586.631 748.567 560.881 725.823 544.268 694.339 535.189 661.538 524.603 623.567 522.123 583.821 523.248 544.571 525.099 494.884 536.409 443.918 565.078 402.512 586.403 371.353 618.008 347.807 653.334 334.851 671.149 328.211 689.822 324.089 708.687 321.971M718.434 398.2C684.978 402.341 655.298 424.856 640.363 454.795 622.605 489.694 620.45 529.974 620.908 568.422 622.262 604.676 625.905 642.877 645.494 674.399 659.705 697.659 685.207 712.408 711.891 716.072 743.364 720.518 778.231 718.705 805.03 699.777 831.906 681.688 847.222 650.719 853.288 619.617 861.356 577.696 860.994 534.248 853.669 492.251 848.424 463.495 835.854 434.244 811.63 416.556 785.212 396.788 750.116 394.155 718.434 398.2Z" fill="#FFFFFF" fill-rule="evenodd"/><path d="M165.752 337.395C171.931 330.543 181.428 327.833 190.429 328.023 227.387 328.042 264.364 327.928 301.342 328.081 325.694 328.119 350.066 330.924 373.675 336.937 405.465 345.926 435.825 364.574 453.141 393.414 472.192 424.391 474.69 462.526 469.884 497.798 465.555 529.596 451.863 560.802 428.159 582.904 401.193 608.556 364.388 621.23 327.964 625.467 302.543 628.578 276.875 627.471 251.339 627.681 251.321 675.989 251.225 724.297 251.244 772.586 251.931 778.293 247.64 783.141 242.396 784.705 229.447 788.981 215.583 788.905 202.1 789 189.781 788.714 177.08 788.58 165.39 784.228 160.642 782.53 157.495 777.701 158.067 772.624 158.048 635.831 158.067 499.019 158.067 362.226 157.972 353.485 159.612 344.037 165.752 337.395M314.844 396.964C307.101 401.659 308.875 412.023 309.084 419.677 309.389 422.559 309.904 428.151 314.214 426.662 323.845 422.444 332.655 416.089 343.163 414.046 353.556 411.813 366.562 412.271 373.675 421.337 382.314 432.884 377.966 451.99 364.617 458.021 352.24 465.007 337.518 460.388 324.474 463.576 320.526 470.065 321.651 478.597 322.872 485.773 324.035 490.793 329.794 489.304 333.609 489.648 347.282 489.667 362.462 488.884 374.076 497.359 385.289 505.146 387.196 522.82 378.481 533.127 371.081 541.2 359.449 543.262 348.979 542.784 334.657 542.479 321.365 536.524 308.741 530.302 303.477 535.131 304.812 542.918 304.965 549.35 305.213 554.599 306.853 560.649 312.231 562.806 332.197 572.731 355.616 574.506 377.356 570.555 394.957 567.311 412.597 557.786 420.912 541.277 428.941 525.378 429.608 504.134 417.708 489.934 409.966 480.181 397.913 475.199 385.899 473.31 397.303 469.817 408.307 462.926 413.532 451.78 420.187 437.332 420.454 419.41 412.693 405.343 405.103 392.307 390.171 385.779 375.735 384.08 354.853 381.771 332.617 385.302 314.844 396.964M191.02 389.119C190.62 443.802 191.04 498.485 190.811 553.187 190.83 558.512 190.677 565.936 196.818 568.093 205.972 570.498 215.602 568.838 224.966 569.276 245.924 568.914 266.977 570.059 287.878 568.742 293.103 559.962 292.207 547.976 288.202 538.814 268.14 538.624 248.098 538.891 228.036 538.681 227.998 490.01 228.169 441.34 227.96 392.688 228.627 388.795 224.756 387.153 221.628 386.657 211.502 385.435 200.479 384.443 191.02 389.119Z" fill="#FFFFFF" fill-rule="evenodd"/><path d="M315.131 396.544C332.888 384.889 355.104 381.359 375.967 383.668 390.39 385.366 405.309 391.89 412.892 404.919 420.646 418.979 420.38 436.892 413.73 451.333 408.51 462.473 397.516 469.36 386.122 472.851 398.126 474.74 410.167 479.719 417.903 489.467 429.792 503.66 429.125 524.892 421.104 540.783 412.797 557.284 395.172 566.803 377.587 570.046 355.866 573.995 332.469 572.221 312.52 562.301 307.147 560.146 305.509 554.098 305.261 548.852 305.109 542.423 303.775 534.64 309.034 529.814 321.647 536.033 334.927 541.985 349.236 542.29 359.696 542.767 371.318 540.707 378.711 532.637 387.418 522.336 385.513 504.671 374.309 496.888 362.706 488.418 347.54 489.2 333.879 489.181 330.068 488.837 324.314 490.325 323.152 485.308 321.933 478.135 320.808 469.608 324.752 463.122 337.785 459.936 352.494 464.553 364.859 457.571 378.196 451.543 382.54 432.447 373.909 420.905 366.803 411.844 353.808 411.386 343.424 413.618 332.926 415.659 324.124 422.012 314.502 426.228 310.196 427.716 309.682 422.126 309.377 419.246 309.167 411.596 307.395 401.237 315.131 396.544Z" fill="#000000" fill-rule="evenodd" fill-opacity="0.501961"/><path d="M191.211 388.482C200.698 383.801 211.754 384.794 221.911 386.018 225.048 386.514 228.931 388.158 228.262 392.056 228.472 440.762 228.3 489.488 228.338 538.214 248.461 538.424 268.565 538.157 288.688 538.348 292.705 547.52 293.603 559.52 288.362 568.309 267.398 569.628 246.28 568.481 225.259 568.845 215.867 568.405 206.207 570.067 197.025 567.66 190.866 565.501 191.019 558.068 191 552.736 191.23 497.972 190.809 443.227 191.211 388.482Z" fill="#000000" fill-rule="evenodd" fill-opacity="0.501961"/><path d="M500.467 2.36271C604.586-7.40839 711.368 13.2798 804.179 61.5897 921.467 122.02 1015.59 226.062 1063.66 349.072 1107.86 460.392 1113.96 586.268 1081.35 701.484 1052.64 804.007 993.236 897.59 912.907 967.333 838.332 1032.72 745.692 1077.19 648.072 1094.41 530.326 1115.62 405.766 1097.31 299.471 1042.23 181.983 982.233 87.5686 878.478 39.0446 755.668 0.482883 659.277-9.76594 551.826 9.41478 449.79 28.0513 348.385 76.3465 252.825 146.37 177.236 237.521 77.9226 366.145 14.0246 500.467 2.36271M697.912 322.94C647.842 330.19 599.318 355.348 569.059 396.638 533.933 443.601 522.711 504.003 522.939 561.568 523.311 615.38 530.383 671.942 560.299 718.046 584.117 755.21 624.596 779.164 667.281 788.076 712.312 797.417 759.662 797.904 804.493 787.245 848.981 776.471 890.062 750.081 915.626 711.742 947.06 665.381 957.108 608.044 957.194 552.915 957.223 509.849 952.413 465.836 935.236 425.95 919.463 388.213 889.89 356.007 852.159 339.674 803.978 318.614 749.471 316.035 697.912 322.94M164.577 338.356C158.737 345.491 157.993 355.09 157.964 363.944 158.136 500.593 157.821 637.243 158.107 773.892 157.649 783.148 168.127 785.812 175.341 787.016 195.008 789.852 215.22 789.938 234.858 786.815 241.843 785.526 251.548 782.546 251.147 773.72 251.434 725.038 251.176 676.326 251.319 627.644 291.799 627.644 333.481 629.22 372.3 615.609 408.772 603.804 441.379 577.901 457.124 542.428 472.927 507.184 475.933 466.553 467.917 428.93 459.873 392.282 433.278 361.078 399.067 346.121 366.059 330.533 328.757 327.754 292.772 327.668 258.476 327.697 224.18 327.611 189.855 327.697 180.466 327.554 170.56 330.734 164.577 338.356Z" fill-rule="evenodd"/><path d="M1308.28 245.445C1316.92 235.242 1330.66 230.828 1343.74 231.029 1392.31 230.971 1440.9 231.057 1489.5 231 1545.99 230.971 1605.15 235.471 1655.75 263.043 1689.18 280.526 1717.17 308.901 1732.53 343.58 1751.25 384.68 1752.85 431.397 1746.96 475.564 1740.75 521.45 1720.91 566.448 1686.77 598.318 1649.71 633.486 1599.68 651.771 1549.77 658.564 1510.88 664.124 1471.5 662.404 1432.37 662.691 1432.23 733.054 1432.43 803.445 1432.12 873.807 1432.35 882.664 1423.9 888.023 1416.29 889.886 1396.43 895.389 1375.56 895.102 1355.13 894.93 1339.05 894.242 1322.33 893.899 1307.31 887.536 1300.78 884.956 1297.49 877.934 1298.06 871.199 1298.06 674.299 1298.06 477.398 1298.06 280.498 1297.95 268.231 1300.07 255.075 1308.28 245.445Z" fill-rule="evenodd"/><path d="M723.565 396.918C753.376 394.109 785.9 397.062 810.743 415.439 834.044 432.154 846.865 459.705 852.548 487.2 859.544 522.836 860.686 559.62 856.774 595.716 853.69 625.045 845.837 654.919 827.448 678.514 810.6 700.361 784.558 714.495 757.174 717.018 726.877 719.885 693.753 717.247 668.396 698.698 644.439 681.525 632.531 652.51 626.935 624.414 620.395 589.408 619.481 553.427 623.108 518.049 626.221 489.149 633.816 459.677 651.92 436.425 669.025 414.006 695.552 399.384 723.565 396.918Z" fill-rule="evenodd"/><path d="M251 552.856C259.728 548.666 251.533 561.687 251 552.856Z" fill-rule="evenodd"/><path d="M2100.6 222.297C2157.74 218.286 2217.06 222.842 2269.92 246.392 2310.84 264.356 2346.55 294.268 2370.5 332.115 2401.06 379.303 2414.34 435.372 2420.06 490.725 2424.93 544.445 2424.13 598.909 2414.83 652.114 2405.44 704.63 2386.95 756.545 2354.25 799.148 2328.49 833.271 2293.35 859.945 2254.03 876.562 2206.27 897.191 2153.36 902.577 2101.8 900.629 2051.44 898.566 2000.21 887.535 1956.98 860.604 1915.54 835.764 1884.18 796.255 1865.35 752.047 1843.94 701.794 1835.79 646.899 1833.53 592.606 1831.01 526.509 1837.1 459.008 1860.65 396.751 1878.85 348.245 1909.9 303.837 1952.31 273.582 1995.41 242.381 2047.89 226.136 2100.6 222.297M2088.86 299.109C2055.18 304.066 2023.45 319.738 1998.44 342.773 1967.65 370.621 1948.45 409.242 1938.37 449.095 1923.92 508.946 1923.09 571.433 1930.22 632.373 1935.43 676.008 1946.59 720.359 1972.51 756.573 1996.64 790.725 2035.04 813.617 2076.04 820.636 2109.67 826.424 2144.52 826.682 2177.97 819.748 2225.5 810.093 2267.48 778.434 2291.49 736.461 2315.24 696.379 2324.37 649.707 2328.26 603.808 2332.38 551.092 2329.78 497.629 2318.25 445.972 2307.46 400.533 2284.91 355.351 2245.62 328.218 2200.67 296.187 2142.03 291.632 2088.86 299.109Z" fill-rule="evenodd"/><path d="M3021.87 257.984C3079.92 224.844 3149.69 214.218 3215.34 225.131 3256.75 232.206 3297.85 252.255 3322.26 287.6 3351.07 329.245 3354.87 383.952 3343.72 432.214 3334.23 473.946 3305.97 510.837 3267.76 530.056 3254.12 537.246 3239.09 540.998 3224.28 544.778 3266.81 549.247 3308.43 567.12 3338.44 598.053 3361.5 622.084 3376.36 654.049 3379.33 687.302 3383.19 736.682 3370.39 788.61 3338.15 826.962 3308.71 863.023 3264.84 884.447 3219.97 893.813 3160.03 906.215 3096.99 902.348 3038.71 883.903 3018.82 877.544 2999.1 869.753 2981.86 857.867 2968.6 848.501 2967.54 830.628 2967 815.849 2967.26 804.335 2965.74 791.474 2972.34 781.392 2977.29 774.031 2986.69 777.64 2992.81 781.306 3027.28 801.299 3064.8 816.364 3103.9 824.384 3139.89 830.256 3177.78 830.714 3212.71 819.057 3241.03 809.719 3266.84 789.985 3279.39 762.374 3298.08 721.358 3293.68 668.198 3261.55 635.059 3229.11 601.376 3180.7 589.919 3135.51 588 3108.82 586.997 3082.09 587.942 3055.4 587.427 3046.83 587.885 3039.62 581.412 3037.02 573.621 3032.62 561.391 3032.85 547.815 3035.36 535.212 3036.99 526.963 3043.28 518.542 3052.34 518.342 3090.04 516.738 3128.65 521.722 3165.49 511.21 3193.25 503.763 3219.37 487.781 3235.6 463.635 3254.18 436.396 3259.61 401.195 3253.01 369.144 3248.09 344.77 3233.4 322.171 3211.91 309.454 3190.82 296.679 3165.61 292.727 3141.34 293.701 3103.39 294.474 3068.12 311.115 3035.57 329.217 3023.65 335.261 3013.79 345.085 3001.1 349.41 2990.52 351.844 2985.95 340.13 2986.01 331.652 2985.32 315.239 2982.92 297.08 2991.72 282.272 2998.9 271.188 3010.93 264.743 3021.87 257.984Z" fill-rule="evenodd"/><path d="M2575.49 231.194C2596.6 226.983 2619.02 226.553 2639.89 232.226 2646.62 233.401 2650.72 239.79 2649.89 246.466 2650.04 436.2 2649.95 625.963 2649.95 815.698 2728.91 815.898 2807.86 815.612 2886.79 815.984 2896.4 815.44 2902.1 825.067 2903.42 833.405 2905.51 847.616 2905.77 862.343 2902.7 876.44 2900.95 884.033 2895.54 892.542 2886.68 891.826 2790.17 892.17 2693.67 891.883 2597.17 891.969 2586.42 892.227 2575.27 888.187 2568.36 879.763 2562.68 872.371 2562.19 862.63 2562.05 853.719 2562.13 651.177 2561.93 448.635 2562.13 246.122 2560.93 237.842 2568.01 232.255 2575.49 231.194Z" fill-rule="evenodd"/></g></svg>