<svg width="452" height="664" xmlns="http://www.w3.org/2000/svg" xmlns:xlink="http://www.w3.org/1999/xlink" xml:space="preserve" overflow="hidden"><defs><clipPath id="clip0"><rect x="1320" y="1580" width="452" height="664"/></clipPath></defs><g clip-path="url(#clip0)" transform="translate(-1320 -1580)"><path d="M1330.28 1594.45C1338.92 1584.24 1352.66 1579.83 1365.74 1580.03 1414.31 1579.97 1462.9 1580.06 1511.5 1580 1567.99 1579.97 1627.15 1584.47 1677.75 1612.04 1711.18 1629.53 1739.17 1657.9 1754.53 1692.58 1773.25 1733.68 1774.85 1780.4 1768.96 1824.56 1762.75 1870.45 1742.91 1915.45 1708.77 1947.32 1671.71 1982.49 1621.68 2000.77 1571.77 2007.56 1532.88 2013.12 1493.5 2011.4 1454.37 2011.69 1454.23 2082.05 1454.43 2152.44 1454.12 2222.81 1454.35 2231.66 1445.9 2237.02 1438.29 2238.89 1418.43 2244.39 1397.56 2244.1 1377.13 2243.93 1361.05 2243.24 1344.33 2242.9 1329.31 2236.54 1322.78 2233.96 1319.49 2226.93 1320.06 2220.2 1320.06 2023.3 1320.06 1826.4 1320.06 1629.5 1319.95 1617.23 1322.07 1604.08 1330.28 1594.45Z" fill="#8247E5" fill-rule="evenodd"/></g></svg>