<svg width="452" height="664" xmlns="http://www.w3.org/2000/svg" xmlns:xlink="http://www.w3.org/1999/xlink" xml:space="preserve" overflow="hidden"><defs><clipPath id="clip0"><rect x="1298" y="231" width="452" height="664"/></clipPath></defs><g clip-path="url(#clip0)" transform="translate(-1298 -231)"><path d="M1308.28 245.445C1316.92 235.242 1330.66 230.828 1343.74 231.029 1392.31 230.971 1440.9 231.057 1489.5 231 1545.99 230.971 1605.15 235.471 1655.75 263.043 1689.18 280.526 1717.17 308.901 1732.53 343.58 1751.25 384.68 1752.85 431.397 1746.96 475.564 1740.75 521.45 1720.91 566.448 1686.77 598.318 1649.71 633.486 1599.68 651.771 1549.77 658.564 1510.88 664.124 1471.5 662.404 1432.37 662.691 1432.23 733.054 1432.43 803.445 1432.12 873.807 1432.35 882.664 1423.9 888.023 1416.29 889.886 1396.43 895.389 1375.56 895.102 1355.13 894.93 1339.05 894.242 1322.33 893.899 1307.31 887.536 1300.78 884.956 1297.49 877.934 1298.06 871.199 1298.06 674.299 1298.06 477.398 1298.06 280.498 1297.95 268.231 1300.07 255.075 1308.28 245.445Z" fill-rule="evenodd"/></g></svg>