<svg width="452" height="664" xmlns="http://www.w3.org/2000/svg" xmlns:xlink="http://www.w3.org/1999/xlink" xml:space="preserve" overflow="hidden"><defs><clipPath id="clip0"><rect x="1381" y="1500" width="452" height="664"/></clipPath></defs><g clip-path="url(#clip0)" transform="translate(-1381 -1500)"><path d="M1391.28 1514.45C1399.92 1504.24 1413.66 1499.83 1426.74 1500.03 1475.31 1499.97 1523.9 1500.06 1572.5 1500 1628.99 1499.97 1688.15 1504.47 1738.75 1532.04 1772.18 1549.53 1800.17 1577.9 1815.53 1612.58 1834.25 1653.68 1835.85 1700.4 1829.96 1744.56 1823.75 1790.45 1803.91 1835.45 1769.77 1867.32 1732.71 1902.49 1682.68 1920.77 1632.77 1927.56 1593.88 1933.12 1554.5 1931.4 1515.37 1931.69 1515.23 2002.05 1515.43 2072.44 1515.12 2142.81 1515.35 2151.66 1506.9 2157.02 1499.29 2158.89 1479.43 2164.39 1458.56 2164.1 1438.13 2163.93 1422.05 2163.24 1405.33 2162.9 1390.31 2156.54 1383.78 2153.96 1380.49 2146.93 1381.06 2140.2 1381.06 1943.3 1381.06 1746.4 1381.06 1549.5 1380.95 1537.23 1383.07 1524.08 1391.28 1514.45Z" fill="#FFFFFF" fill-rule="evenodd"/></g></svg>