<svg width="1760" height="1760" xmlns="http://www.w3.org/2000/svg" xmlns:xlink="http://www.w3.org/1999/xlink" xml:space="preserve" overflow="hidden"><defs><clipPath id="clip0"><rect x="1014" y="229" width="1760" height="1760"/></clipPath><linearGradient x1="1894.5" y1="246" x2="1894.5" y2="1979" gradientUnits="userSpaceOnUse" spreadMethod="reflect" id="fill1"><stop offset="0" stop-color="#8247E5"/><stop offset="0.46" stop-color="#8247E5"/><stop offset="0.54" stop-color="#7532E2"/><stop offset="1" stop-color="#7532E2"/></linearGradient></defs><g clip-path="url(#clip0)" transform="translate(-1014 -229)"><path d="M1014 1109C1014 622.989 1407.99 229 1894 229 2380.01 229 2774 622.989 2774 1109 2774 1595.01 2380.01 1989 1894 1989 1407.99 1989 1014 1595.01 1014 1109Z" fill="#000000" fill-rule="evenodd" fill-opacity="0.101961"/><path d="M1028 1112.5C1028 633.945 1415.95 246 1894.5 246 2373.05 246 2761 633.945 2761 1112.5 2761 1591.05 2373.05 1979 1894.5 1979 1415.95 1979 1028 1591.05 1028 1112.5Z" fill="url(#fill1)" fill-rule="evenodd"/><path d="M1028 1129.67C1028 651.02 1415.95 263 1894.5 263 2373.05 263 2761 651.02 2761 1129.67 2616.58 1274.11 1172.42 1274.11 1028 1129.67Z" fill="#7532E2" fill-rule="evenodd"/><path d="M0 865.778C0 387.622 387.945 0 866.5 0 1345.05 0 1733 387.622 1733 865.778 1588.58 1010.07 144.417 1010.07 0 865.778Z" fill="#8247E5" fill-rule="evenodd" transform="matrix(1 0 0 -1 1028 1961)"/><path d="M2155.21 730.195C2219.62 723.576 2285.81 726.669 2348.18 744.887 2401.49 760.477 2451.12 791.13 2484.97 835.61 2528.84 891.997 2548.06 963.418 2554.8 1033.48 2560.68 1100.14 2559.1 1167.97 2544.59 1233.48 2531.47 1291.57 2506.66 1348.14 2466.53 1392.72 2424.82 1440.1 2366.75 1471.16 2305.67 1485.48 2248.77 1498.75 2189.49 1499.49 2131.6 1493.09 2068.6 1485.76 2005.05 1464.76 1957.22 1421.73 1915.45 1384.86 1888.5 1333.82 1873.77 1280.65 1856.6 1219.1 1852.58 1154.67 1854.4 1091.04 1857.4 1010.5 1875.75 927.878 1922.26 860.757 1956.85 810.246 2008.12 772.076 2065.42 751.074 2094.32 740.31 2124.61 733.628 2155.21 730.195M2171.02 853.766C2116.75 860.479 2068.6 896.977 2044.38 945.509 2015.57 1002.08 2012.08 1067.38 2012.82 1129.71 2015.01 1188.48 2020.92 1250.4 2052.7 1301.5 2075.75 1339.2 2117.12 1363.11 2160.4 1369.05 2211.46 1376.26 2268.02 1373.32 2311.49 1342.64 2355.08 1313.32 2379.93 1263.11 2389.77 1212.69 2402.85 1144.74 2402.27 1074.31 2390.39 1006.23 2381.88 959.614 2361.49 912.196 2322.19 883.522 2279.34 851.477 2222.41 847.209 2171.02 853.766Z" fill="#FFFFFF" fill-rule="evenodd"/><path d="M1274.59 755.223C1284.63 744.121 1300.05 739.729 1314.67 740.038 1374.7 740.069 1434.76 739.884 1494.82 740.131 1534.37 740.193 1573.95 744.739 1612.3 754.481 1663.93 769.048 1713.24 799.264 1741.37 845.996 1772.31 896.191 1776.37 957.984 1768.56 1015.14 1761.53 1066.66 1739.29 1117.23 1700.79 1153.04 1657 1194.61 1597.22 1215.15 1538.06 1222.01 1496.77 1227.05 1455.08 1225.26 1413.6 1225.6 1413.57 1303.88 1413.42 1382.16 1413.45 1460.4 1414.56 1469.65 1407.59 1477.51 1399.08 1480.04 1378.04 1486.97 1355.53 1486.85 1333.63 1487 1313.62 1486.54 1292.99 1486.32 1274 1479.27 1266.29 1476.52 1261.18 1468.69 1262.11 1460.46 1262.08 1238.81 1262.11 1017.12 1262.11 795.46 1261.95 781.295 1264.62 765.986 1274.59 755.223M1516.75 851.748C1504.17 859.356 1507.05 876.15 1507.39 888.552 1507.89 893.222 1508.72 902.284 1515.72 899.872 1531.37 893.037 1545.68 882.738 1562.74 879.429 1579.62 875.81 1600.75 876.552 1612.3 891.243 1626.33 909.954 1619.27 940.912 1597.59 950.686 1577.49 962.005 1553.57 954.521 1532.39 959.685 1525.98 970.201 1527.8 984.026 1529.79 995.654 1531.67 1003.79 1541.03 1001.38 1547.22 1001.93 1569.43 1001.96 1594.09 1000.7 1612.95 1014.43 1631.16 1027.05 1634.26 1055.68 1620.11 1072.39 1608.09 1085.47 1589.19 1088.81 1572.19 1088.03 1548.93 1087.54 1527.34 1077.89 1506.83 1067.81 1498.28 1075.63 1500.45 1088.25 1500.7 1098.67 1501.1 1107.18 1503.77 1116.98 1512.5 1120.48 1544.93 1136.56 1582.97 1139.44 1618.28 1133.03 1646.87 1127.78 1675.52 1112.34 1689.02 1085.59 1702.06 1059.83 1703.15 1025.41 1683.82 1002.4 1671.24 986.593 1651.67 978.521 1632.15 975.459 1650.68 969.799 1668.55 958.634 1677.04 940.572 1687.85 917.16 1688.28 888.119 1675.67 865.326 1663.35 844.202 1639.09 833.625 1615.65 830.872 1581.73 827.13 1545.61 832.852 1516.75 851.748M1315.63 839.037C1314.98 927.645 1315.66 1016.25 1315.29 1104.89 1315.32 1113.52 1315.07 1125.55 1325.05 1129.04 1339.92 1132.94 1355.56 1130.25 1370.77 1130.96 1404.81 1130.37 1439 1132.23 1472.95 1130.1 1481.44 1115.87 1479.98 1096.45 1473.47 1081.6 1440.89 1081.29 1408.34 1081.73 1375.75 1081.39 1375.69 1002.52 1375.97 923.655 1375.63 844.821 1376.71 838.512 1370.42 835.852 1365.34 835.047 1348.9 833.068 1330.99 831.46 1315.63 839.037Z" fill="#FFFFFF" fill-rule="evenodd"/><path d="M1516.44 851.929C1545.26 833.058 1581.32 827.344 1615.18 831.081 1638.58 833.83 1662.8 844.393 1675.1 865.489 1687.69 888.251 1687.26 917.253 1676.46 940.634 1667.99 958.671 1650.15 969.821 1631.66 975.473 1651.14 978.531 1670.68 986.592 1683.24 1002.38 1702.53 1025.35 1701.45 1059.73 1688.43 1085.46 1674.95 1112.17 1646.35 1127.59 1617.8 1132.84 1582.55 1139.23 1544.58 1136.36 1512.21 1120.3 1503.49 1116.81 1500.83 1107.02 1500.42 1098.52 1500.18 1088.11 1498.01 1075.51 1506.55 1067.7 1527.02 1077.77 1548.57 1087.4 1571.79 1087.9 1588.77 1088.67 1607.63 1085.33 1619.63 1072.27 1633.76 1055.59 1630.67 1026.99 1612.49 1014.39 1593.65 1000.68 1569.04 1001.94 1546.87 1001.91 1540.68 1001.36 1531.35 1003.76 1529.46 995.642 1527.48 984.029 1525.66 970.223 1532.06 959.722 1553.21 954.564 1577.08 962.038 1597.15 950.734 1618.79 940.974 1625.84 910.057 1611.84 891.371 1600.3 876.7 1579.21 875.959 1562.36 879.572 1545.32 882.877 1531.04 893.162 1515.42 899.988 1508.43 902.397 1507.6 893.348 1507.1 888.684 1506.76 876.299 1503.89 859.527 1516.44 851.929Z" fill="#C0A3F2" fill-rule="evenodd"/><path d="M1316.34 838.64C1331.65 831.058 1349.49 832.667 1365.89 834.648 1370.95 835.453 1377.22 838.114 1376.14 844.427 1376.47 923.311 1376.2 1002.23 1376.26 1081.14 1408.73 1081.48 1441.18 1081.05 1473.65 1081.36 1480.14 1096.21 1481.59 1115.65 1473.13 1129.88 1439.3 1132.02 1405.21 1130.16 1371.29 1130.75 1356.13 1130.04 1340.54 1132.73 1325.72 1128.83 1315.78 1125.33 1316.03 1113.29 1316 1104.66 1316.37 1015.97 1315.69 927.303 1316.34 838.64Z" fill="#C0A3F2" fill-rule="evenodd"/></g></svg>